# xmcd CD database file
#
# Track frame offsets:
#	150
#	16585
#	31822
#	49857
#	65785
#	87107
#	112092
#	139890
#	149997
#	167972
#	180950
#	205820
#
# Disc length: 3690 seconds
#
# Revision: 1
# Processed by: cddbd v1.5.2PL0 Copyright (c) Steve Scherf et al.
# Submitted via: CDex 1.70beta2
#
DISCID=ac0e680c
DTITLE=Götz Tangerding - Crystalization [CD2)
DYEAR=1995
DGENRE=Jazz
TTITLE0=For Jonas
TTITLE1=Why can't we share what we have
TTITLE2=For Charlotte
TTITLE3=Herbst in München
TTITLE4=Mix it Up
TTITLE5=Crystalization I
TTITLE6=Crystalization II
TTITLE7=Crystalization III
TTITLE8=Crystalization IV
TTITLE9=Crystalization V
TTITLE10=Seven for Rico
TTITLE11=Porque No
EXTD=YEAR: 1995
EXTT0=
EXTT1=
EXTT2=
EXTT3=
EXTT4=
EXTT5=
EXTT6=
EXTT7=
EXTT8=
EXTT9=
EXTT10=
EXTT11=
PLAYORDER=
